<svg xmlns="http://www.w3.org/2000/svg" xmlns:xlink="http://www.w3.org/1999/xlink" xmlns:inkscape="http://www.inkscape.org/namespaces/inkscape" version="1.1" width="70.32" height="47.627" viewBox="0 0 70.32 47.627">
<defs>
<path id="font_1_1" d="M.34899903 .38783265 .22099304 .41886903C.15899658 .4338684 .11999512 .48791505 .11999512 .5459595 .11999512 .61602786 .17399597 .677063 .2519989 .677063 .4189911 .677063 .44099427 .51293948 .44699098 .4678955 .44799806 .4618988 .44799806 .45588685 .45899964 .45588685 .47200013 .45588685 .47200013 .46089173 .47200013 .47990418V.68107607C.47200013 .69807437 .47200013 .7050781 .46099855 .7050781 .45399476 .7050781 .45298768 .70407107 .44599916 .69207766L.41099549 .6350403C.3809967 .6640625 .33999635 .7050781 .25099183 .7050781 .13999939 .7050781 .055999757 .61701968 .055999757 .51094058 .055999757 .4278717 .10899353 .35481263 .18699646 .3277893 .19799805 .3237915 .24899292 .31178285 .31900025 .2947693 .34599305 .28775025 .37599183 .28074647 .4039917 .24372864 .4249878 .21769715 .43499757 .18467713 .43499757 .15164185 .43499757 .080596927 .3849945 .008529663 .30099488 .008529663 .27198792 .008529663 .19599915 .013534546 .14299011 .062576297 .084991458 .116622928 .08198547 .18066406 .08099365 .21670532 .07998657 .22669983 .07199097 .22669983 .068984989 .22669983 .055999757 .22669983 .055999757 .21969605 .055999757 .20169068V.0015258789C.055999757-.015472412 .055999757-.022460938 .066986087-.022460938 .07398987-.022460938 .07499695-.020462037 .08198547-.009475708 .08198547-.008468628 .084991458-.0054626467 .117996219 .047561647 .14898682 .013534546 .21299744-.022460938 .3019867-.022460938 .4189911-.022460938 .49899293 .07559204 .49899293 .18566895 .49899293 .28575135 .43299867 .36782838 .34899903 .38783265Z"/>
<path id="font_1_2" d="M.66600039 .6766052H.054992677L.035995485 .4516449H.06098938C.07499695 .6126251 .08999634 .6456146 .24099732 .6456146 .25898744 .6456146 .2849884 .6456146 .29499818 .6436157 .31599427 .6396179 .31599427 .62861636 .31599427 .60562136V.078948978C.31599427 .04498291 .31599427 .0309906 .21099854 .0309906H.17098999V0C.21199036 .0029907227 .31399537 .0029907227 .3600006 .0029907227 .4059906 .0029907227 .5089874 .0029907227 .5499878 0V.0309906H.5099945C.40499879 .0309906 .40499879 .04498291 .40499879 .078948978V.60562136C.40499879 .62561038 .40499879 .6396179 .4229889 .6436157 .43399049 .6456146 .46099855 .6456146 .47999574 .6456146 .6309967 .6456146 .6459961 .6126251 .6599884 .4516449H.68499758L.66600039 .6766052Z"/>
<path id="font_2_1" d="M.2749939 .42684938C.27598573 .44084168 .27598573 .46484376 .25 .46484376 .23399353 .46484376 .22099304 .45184327 .22399903 .43884278V.42585755L.23799134 .27098084 .10998535 .36390687C.100997928 .36889649 .09899902 .3708954 .09199524 .3708954 .07798767 .3708954 .06498718 .35691834 .06498718 .34292604 .06498718 .3269348 .07499695 .322937 .084991458 .3179474L.22698975 .25 .08898926 .18305969C.07299805 .17506409 .06498718 .17106629 .06498718 .15608216 .06498718 .14109802 .07798767 .1281128 .09199524 .1281128 .09899902 .1281128 .100997928 .1281128 .12599182 .14709473L.23799134 .22802735 .22299195 .060165407C.22299195 .03916931 .24099732 .034179689 .24899292 .034179689 .26098634 .034179689 .27598573 .041168214 .27598573 .060165407L.26098634 .22802735 .3889923 .13510132C.397995 .1301117 .3999939 .1281128 .40699769 .1281128 .42099 .1281128 .43399049 .14208985 .43399049 .15608216 .43399049 .17106629 .4249878 .17607117 .41299439 .18206787 .35299684 .21203614 .35099793 .21203614 .27198792 .24900818L.4099884 .3159485C.42599488 .3239441 .43399049 .3279419 .43399049 .34292604 .43399049 .35791017 .42099 .3708954 .40699769 .3708954 .3999939 .3708954 .397995 .3708954 .37298585 .35191346L.26098634 .27098084 .2749939 .42684938Z"/>
<path id="font_2_2" d="M.6049957 .56211856C.6049957 .5801239 .6049957 .598114 .58499148 .598114 .5649872 .598114 .5649872 .5801239 .5649872 .56211856V.040115358H.100997928V.56211856C.100997928 .5801239 .100997928 .598114 .08099365 .598114 .06098938 .598114 .06098938 .5801239 .06098938 .56211856V.036102296C.06098938 .0041046144 .06498718 .00010681152 .09700012 .00010681152H.56900027C.60198977 .00010681152 .6049957 .003112793 .6049957 .036102296V.56211856Z"/>
<path id="font_3_1" d="M.24899292 .4172516C.16099549 .4372406 .13398743 .5002136 .13398743 .54219058 .13398743 .6081543 .19499207 .67111209 .28599549 .67111209 .42099 .67111209 .47898866 .5811615 .49499513 .4762268 .49699403 .46122743 .49798585 .4562378 .5130005 .4562378 .5299988 .4562378 .5299988 .46322633 .5299988 .4822235V.677124C.5299988 .6941223 .5299988 .703125 .5159912 .703125 .5079956 .703125 .5059967 .700119 .49899293 .68911746L.46299745 .6331482C.39698792 .700119 .31399537 .703125 .28599549 .703125 .1599884 .703125 .069992069 .6131439 .069992069 .51220706 .069992069 .4562378 .09498596 .41325379 .1309967 .37927247 .17098999 .34028626 .20399475 .33329774 .31199647 .3093109 .40299989 .2893219 .4229889 .2853241 .45199586 .25733949 .47499085 .23434448 .49598695 .20236206 .49598695 .15739441 .49598695 .0874176 .43798829 .016464234 .34199525 .016464234 .24499512 .016464234 .11099243 .05444336 .10398865 .20536804 .102996829 .22135926 .102996829 .22735596 .08699036 .22735596 .069992069 .22735596 .069992069 .22035218 .069992069 .20036316V.006454468C.069992069-.010543823 .069992069-.01953125 .083999637-.01953125 .09199524-.01953125 .09399414-.016540528 .099990848-.007537842 .10899353 .0044555666 .1289978 .036453248 .13699341 .049438478 .19999695-.0055389406 .2769928-.01953125 .34199525-.01953125 .47399903-.01953125 .55999758 .079422 .55999758 .18537903 .55999758 .2753296 .49699403 .36027528 .39698792 .38327027L.24899292 .4172516Z"/>
<path id="font_4_1" d="M.4079895 .6543274C.42599488 .6543274 .44299317 .6543274 .44299317 .67433169 .44299317 .69433596 .4249878 .69433596 .4079895 .69433596H.09098816C.05899048 .69433596 .055999757 .69132998 .055999757 .6603241V.34014894C.055999757 .32313539 .055999757 .30613709 .07598877 .30613709 .09599304 .30613709 .09599304 .32714845 .09599304 .34414674V.6543274H.4079895Z"/>
</defs>
<use data-text="S" xlink:href="#font_1_1" transform="matrix(9.9626,0,0,-9.9626,4.2890007,10.453999)"/>
<use data-text="T" xlink:href="#font_1_2" transform="matrix(9.9626,0,0,-9.9626,50.574,10.453999)"/>
<use data-text="&#x2217;" xlink:href="#font_2_1" transform="matrix(9.9626,0,0,-9.9626,4.565999,42.487)"/>
<use data-text="T" xlink:href="#font_1_2" transform="matrix(9.9626,0,0,-9.9626,42.313,42.487)"/>
<use data-text="&#x2294;" xlink:href="#font_2_2" transform="matrix(9.9626,0,0,-9.9626,49.505998,42.487)"/>
<use data-text="S" xlink:href="#font_3_1" transform="matrix(6.9738,0,0,-6.9738,56.15,43.981)"/>
<use data-text="&#x2217;" xlink:href="#font_2_1" transform="matrix(9.9626,0,0,-9.9626,61.049005,42.487)"/>
<path transform="matrix(1,0,0,-1,35.16,23.814)" stroke-width=".39848" stroke-linecap="butt" stroke-miterlimit="10" stroke-linejoin="miter" fill="none" stroke="#000000" d="M-20.84709 15.85051H10.52734"/>
<path transform="matrix(1,0,0,-1,45.88658,7.9634897)" stroke-width=".39848" stroke-linecap="round" stroke-linejoin="round" fill="none" stroke="#000000" d="M-2.07213 2.39091C-1.69356 .95633-.84995 .27893 0 0-.84995-.27893-1.69356-.95633-2.07213-2.39091"/>
<path transform="matrix(1,0,0,-1,35.16,23.814)" stroke-width=".39848" stroke-linecap="butt" stroke-miterlimit="10" stroke-linejoin="miter" fill="none" stroke="#000000" d="M-28.1033 9.51445V-9.794"/>
<path transform="matrix(0,1,1,0,7.0566999,33.80724)" stroke-width=".39848" stroke-linecap="round" stroke-linejoin="round" fill="none" stroke="#000000" d="M-2.07213 2.39091C-1.69356 .95633-.84995 .27893 0 0-.84995-.27893-1.69356-.95633-2.07213-2.39091"/>
<path transform="matrix(1,0,0,-1,35.16,23.814)" stroke-width=".39848" stroke-linecap="butt" stroke-miterlimit="10" stroke-linejoin="miter" fill="none" stroke="#000000" d="M19.01225 9.51445V-7.62158"/>
<path transform="matrix(0,1,1,0,54.17225,31.634819)" stroke-width=".39848" stroke-linecap="round" stroke-linejoin="round" fill="none" stroke="#000000" d="M-2.07213 2.39091C-1.69356 .95633-.84995 .27893 0 0-.84995-.27893-1.69356-.95633-2.07213-2.39091"/>
<path transform="matrix(1,0,0,-1,35.16,23.814)" stroke-width=".39848" stroke-linecap="butt" stroke-miterlimit="10" stroke-linejoin="miter" fill="none" stroke="#000000" d="M-21.12384-16.18259H2.26653"/>
<path transform="matrix(1,0,0,-1,37.62577,39.99659)" stroke-width=".39848" stroke-linecap="round" stroke-linejoin="round" fill="none" stroke="#000000" d="M-2.07213 2.39091C-1.69356 .95633-.84995 .27893 0 0-.84995-.27893-1.69356-.95633-2.07213-2.39091"/>
<use data-text="&#x231c;" xlink:href="#font_4_1" transform="matrix(9.9626,0,0,-9.9626,36.195,32.914)"/>
</svg>
