<svg xmlns="http://www.w3.org/2000/svg" xmlns:xlink="http://www.w3.org/1999/xlink" xmlns:inkscape="http://www.inkscape.org/namespaces/inkscape" version="1.1" width="68.383" height="55.819" viewBox="0 0 68.383 55.819">
<defs>
<path id="font_1_3" d="M.40899659 .6320038C.40899659 .65000918 .40899659 .6680145 .3889923 .6680145 .36898805 .6680145 .36898805 .6470032 .36898805 .6320038V.039993287H.09098816C.07598877 .039993287 .054992677 .039993287 .054992677 .019989014 .054992677 0 .07598877 0 .09098816 0H.6879883C.7049866 0 .72299197 0 .72299197 .019989014 .72299197 .039993287 .7049866 .039993287 .6879883 .039993287H.40899659V.6320038Z"/>
<path id="font_1_2" d="M.40899659 .628006H.6879883C.7049866 .628006 .72299197 .628006 .72299197 .64801028 .72299197 .6680145 .7049866 .6680145 .6879883 .6680145H.09098816C.07598877 .6680145 .054992677 .6680145 .054992677 .64801028 .054992677 .628006 .07598877 .628006 .09098816 .628006H.36898805V.035995485C.36898805 .020996094 .36898805 0 .3889923 0 .40899659 0 .40899659 .017990113 .40899659 .035995485V.628006Z"/>
<path id="font_1_1" d="M.2749939 .42684938C.27598573 .44084168 .27598573 .46484376 .25 .46484376 .23399353 .46484376 .22099304 .45184327 .22399903 .43884278V.42585755L.23799134 .27098084 .10998535 .36390687C.100997928 .36889649 .09899902 .3708954 .09199524 .3708954 .07798767 .3708954 .06498718 .35691834 .06498718 .34292604 .06498718 .3269348 .07499695 .322937 .084991458 .3179474L.22698975 .25 .08898926 .18305969C.07299805 .17506409 .06498718 .17106629 .06498718 .15608216 .06498718 .14109802 .07798767 .1281128 .09199524 .1281128 .09899902 .1281128 .100997928 .1281128 .12599182 .14709473L.23799134 .22802735 .22299195 .060165407C.22299195 .03916931 .24099732 .034179689 .24899292 .034179689 .26098634 .034179689 .27598573 .041168214 .27598573 .060165407L.26098634 .22802735 .3889923 .13510132C.397995 .1301117 .3999939 .1281128 .40699769 .1281128 .42099 .1281128 .43399049 .14208985 .43399049 .15608216 .43399049 .17106629 .4249878 .17607117 .41299439 .18206787 .35299684 .21203614 .35099793 .21203614 .27198792 .24900818L.4099884 .3159485C.42599488 .3239441 .43399049 .3279419 .43399049 .34292604 .43399049 .35791017 .42099 .3708954 .40699769 .3708954 .3999939 .3708954 .397995 .3708954 .37298585 .35191346L.26098634 .27098084 .2749939 .42684938Z"/>
<path id="font_1_4" d="M.6049957 .56211856C.6049957 .5801239 .6049957 .598114 .58499148 .598114 .5649872 .598114 .5649872 .5801239 .5649872 .56211856V.040115358H.100997928V.56211856C.100997928 .5801239 .100997928 .598114 .08099365 .598114 .06098938 .598114 .06098938 .5801239 .06098938 .56211856V.036102296C.06098938 .0041046144 .06498718 .00010681152 .09700012 .00010681152H.56900027C.60198977 .00010681152 .6049957 .003112793 .6049957 .036102296V.56211856Z"/>
<path id="font_2_1" d="M.47099305 .6553192C.47099305 .67033389 .47099305 .69433596 .44699098 .69433596 .42199708 .69433596 .42199708 .6713257 .42199708 .6553192V.04899597H.116989139C.101989749 .04899597 .07699585 .04899597 .07699585 .024993897 .07699585 0 .099990848 0 .116989139 0H.776001C.7919922 0 .81599429 0 .81599429 .023986817 .81599429 .04899597 .79299929 .04899597 .776001 .04899597H.47099305V.6553192Z"/>
<path id="font_3_1" d="M.4079895 .6543274C.42599488 .6543274 .44299317 .6543274 .44299317 .67433169 .44299317 .69433596 .4249878 .69433596 .4079895 .69433596H.09098816C.05899048 .69433596 .055999757 .69132998 .055999757 .6603241V.34014894C.055999757 .32313539 .055999757 .30613709 .07598877 .30613709 .09599304 .30613709 .09599304 .32714845 .09599304 .34414674V.6543274H.4079895Z"/>
</defs>
<use data-text="&#x22a5;" xlink:href="#font_1_3" transform="matrix(9.9626,0,0,-9.9626,4.2889997,10.565002)"/>
<use data-text="&#x22a4;" xlink:href="#font_1_2" transform="matrix(9.9626,0,0,-9.9626,47.447,10.565002)"/>
<use data-text="&#x2217;" xlink:href="#font_1_1" transform="matrix(9.9626,0,0,-9.9626,5.6729977,50.679)"/>
<use data-text="&#x22a4;" xlink:href="#font_1_2" transform="matrix(9.9626,0,0,-9.9626,38.55,50.679)"/>
<use data-text="&#x2294;" xlink:href="#font_1_4" transform="matrix(9.9626,0,0,-9.9626,46.85881,50.679)"/>
<use data-text="&#x22a5;" xlink:href="#font_2_1" transform="matrix(6.9738,0,0,-6.9738,53.494,52.173)"/>
<use data-text="&#x2217;" xlink:href="#font_1_1" transform="matrix(9.9626,0,0,-9.9626,59.112,50.679)"/>
<path transform="matrix(1,0,0,-1,34.191,27.91)" stroke-width=".39848" stroke-linecap="butt" stroke-miterlimit="10" stroke-linejoin="miter" fill="none" stroke="#000000" d="M-17.66458 19.83565H8.28625"/>
<path transform="matrix(1,0,0,-1,40.385095,8.07435)" stroke-width=".39848" stroke-linecap="butt" stroke-miterlimit="10" stroke-linejoin="miter" fill="none" stroke="#000000" d="M0 2.29138 2.29138 0 0-2.29138"/>
<path transform="matrix(1,0,0,-1,34.191,27.91)" stroke-width=".39848" stroke-linecap="butt" stroke-miterlimit="10" stroke-linejoin="miter" fill="none" stroke="#000000" d="M-26.02777 13.49959V-13.80731"/>
<path transform="matrix(0,1,1,0,8.163233,39.62515)" stroke-width=".39848" stroke-linecap="butt" stroke-miterlimit="10" stroke-linejoin="miter" fill="none" stroke="#000000" d="M0 2.29138 2.29138 0 0-2.29138"/>
<path transform="matrix(1,0,0,-1,34.191,27.91)" stroke-width=".39848" stroke-linecap="butt" stroke-miterlimit="10" stroke-linejoin="miter" fill="none" stroke="#000000" d="M17.13045 13.49959V-11.52417"/>
<path transform="matrix(0,1,1,0,51.32145,37.342)" stroke-width=".39848" stroke-linecap="butt" stroke-miterlimit="10" stroke-linejoin="miter" fill="none" stroke="#000000" d="M0 2.29138 2.29138 0 0-2.29138"/>
<path transform="matrix(1,0,0,-1,34.191,27.91)" stroke-width=".39848" stroke-linecap="butt" stroke-miterlimit="10" stroke-linejoin="miter" fill="none" stroke="#000000" d="M-19.04831-20.27843H-.61107"/>
<path transform="matrix(1,0,0,-1,31.487782,48.18843)" stroke-width=".39848" stroke-linecap="butt" stroke-miterlimit="10" stroke-linejoin="miter" fill="none" stroke="#000000" d="M0 2.29138 2.29138 0 0-2.29138"/>
<use data-text="&#x231c;" xlink:href="#font_3_1" transform="matrix(9.9626,0,0,-9.9626,33.072004,36.987)"/>
</svg>
