<svg xmlns="http://www.w3.org/2000/svg" xmlns:xlink="http://www.w3.org/1999/xlink" xmlns:inkscape="http://www.inkscape.org/namespaces/inkscape" version="1.1" width="74.747" height="47.627" viewBox="0 0 74.747 47.627">
<text xml:space="preserve" transform="matrix(1 0 -0 1 .00000047683718 47.627)" font-size="9.9626" font-family="Computer Modern"><tspan y="-37.173" x="4.289">S</tspan></text>
<text xml:space="preserve" transform="matrix(1 0 -0 1 0 47.627)" font-size="9.9626" font-family="Computer Modern"><tspan y="-37.173" x="52.788">T</tspan></text>
<text xml:space="preserve" transform="matrix(1 0 -0 1 -.0000009536743 47.627)" font-size="9.9626" font-family="Computer Modern" font-style="italic"><tspan y="-5.14" x="4.566">&#x2217;</tspan></text>
<text xml:space="preserve" transform="matrix(1 0 -0 1 -.0000038146974 47.627)" font-size="9.9626" font-family="Computer Modern"><tspan y="-5.14" x="42.313">T</tspan></text>
<text xml:space="preserve" transform="matrix(1 0 -0 1 -.0000038146974 47.627)" font-size="9.9626" font-family="Computer Modern" font-style="italic"><tspan y="-5.14" x="51.717695">&#x2294;</tspan></text>
<text xml:space="preserve" transform="matrix(1 0 -0 1 -.0000038146974 47.627)" font-size="6.9738" font-family="Computer Modern"><tspan y="-3.646" x="58.364">S</tspan></text>
<text xml:space="preserve" transform="matrix(1 0 -0 1 -.0000038146974 47.627)" font-size="9.9626" font-family="Computer Modern" font-style="italic"><tspan y="-5.14" x="65.477">&#x2217;</tspan></text>
<path transform="matrix(1,0,0,-1,37.374,23.814)" stroke-width=".39848" stroke-linecap="butt" stroke-miterlimit="10" stroke-linejoin="miter" fill="none" stroke="#000000" d="M-23.06099 15.85051H10.52734"/>
<path transform="matrix(1,0,0,-1,48.10058,7.9634897)" stroke-width=".39848" stroke-linecap="round" stroke-linejoin="round" fill="none" stroke="#000000" d="M-2.07213 2.39091C-1.69356 .95633-.84995 .27893 0 0-.84995-.27893-1.69356-.95633-2.07213-2.39091"/>
<path transform="matrix(1,0,0,-1,37.374,23.814)" stroke-width=".39848" stroke-linecap="butt" stroke-miterlimit="10" stroke-linejoin="miter" fill="none" stroke="#000000" d="M-30.31718 9.51445V-9.794"/>
<path transform="matrix(0,1,1,0,7.05682,33.80724)" stroke-width=".39848" stroke-linecap="round" stroke-linejoin="round" fill="none" stroke="#000000" d="M-2.07213 2.39091C-1.69356 .95633-.84995 .27893 0 0-.84995-.27893-1.69356-.95633-2.07213-2.39091"/>
<path transform="matrix(1,0,0,-1,37.374,23.814)" stroke-width=".39848" stroke-linecap="butt" stroke-miterlimit="10" stroke-linejoin="miter" fill="none" stroke="#000000" d="M19.01225 9.51445V-7.62158"/>
<path transform="matrix(0,1,1,0,56.386255,31.634819)" stroke-width=".39848" stroke-linecap="round" stroke-linejoin="round" fill="none" stroke="#000000" d="M-2.07213 2.39091C-1.69356 .95633-.84995 .27893 0 0-.84995-.27893-1.69356-.95633-2.07213-2.39091"/>
<path transform="matrix(1,0,0,-1,37.374,23.814)" stroke-width=".39848" stroke-linecap="butt" stroke-miterlimit="10" stroke-linejoin="miter" fill="none" stroke="#000000" d="M-23.33774-16.18259H.05264"/>
<path transform="matrix(1,0,0,-1,37.62588,39.99659)" stroke-width=".39848" stroke-linecap="round" stroke-linejoin="round" fill="none" stroke="#000000" d="M-2.07213 2.39091C-1.69356 .95633-.84995 .27893 0 0-.84995-.27893-1.69356-.95633-2.07213-2.39091"/>
<text xml:space="preserve" transform="matrix(1 0 -0 1 0 47.627)" font-size="9.9626" font-family="Euler"><tspan y="-14.74" x="37.641">&#x231c;</tspan></text>
</svg>
